<?xml version="1.0" standalone="no"?><!DOCTYPE svg PUBLIC "-//W3C//DTD SVG 1.1//EN" "http://www.w3.org/Graphics/SVG/1.1/DTD/svg11.dtd"><svg t="1616725024837" class="icon" viewBox="0 0 1024 1024" version="1.1" xmlns="http://www.w3.org/2000/svg" p-id="6027" xmlns:xlink="http://www.w3.org/1999/xlink" width="200" height="200"><defs><style type="text/css"></style></defs><path d="M822.792443 139.020536l-621.582567 0c-68.622674 0-124.316513 55.69384-124.316513 124.316513l0 372.94954c0 68.622674 55.69384 124.316513 124.316513 124.316513l124.13004 0 0 63.52573c0 23.309196 13.05315 44.256594 33.93839 54.574998 8.639942 4.164576 17.839505 6.277944 26.97671 6.277944 13.115308 0 26.1065-4.288892 36.984125-12.618045l145.139395-111.760626 254.413708 0c68.622674 0 124.316314-55.69384 124.316314-124.316513L947.108556 263.337049C947.108756 194.714376 891.415117 139.020536 822.792443 139.020536zM884.9505 636.28659c0 34.373495-27.784762 62.158257-62.158057 62.158257l-264.731912-0.062158c-6.837364 0-13.488255 2.237683-18.895989 6.402259l-151.728328 119.406043 0-94.729174c0-17.155768-13.92336-31.01697-31.01697-31.01697l-155.209168 0c-34.373495 0-62.158257-27.784762-62.158257-62.158257L139.051819 263.337049c0-34.373495 27.784762-62.158257 62.158257-62.158257l621.582567 0c34.373495 0 62.158057 27.784762 62.158057 62.158257L884.950699 636.28659zM325.526389 387.653563c-34.373495 0-62.158257 27.784762-62.158257 62.158257s27.784762 62.158257 62.158257 62.158257 62.158257-27.784762 62.158257-62.158257S359.899884 387.653563 325.526389 387.653563zM512.001159 387.653563c-34.373495 0-62.158257 27.784762-62.158257 62.158257s27.784762 62.158257 62.158257 62.158257c34.373495 0 62.158257-27.784762 62.158257-62.158257S546.374654 387.653563 512.001159 387.653563zM698.475929 387.653563c-34.373495 0-62.158257 27.784762-62.158257 62.158257s27.784762 62.158257 62.158257 62.158257c34.373495 0 62.158257-27.784762 62.158257-62.158257S732.849424 387.653563 698.475929 387.653563z" fill="#66b081" p-id="6028"></path></svg>