<?xml version="1.0" standalone="no"?><!DOCTYPE svg PUBLIC "-//W3C//DTD SVG 1.1//EN" "http://www.w3.org/Graphics/SVG/1.1/DTD/svg11.dtd"><svg t="1616724851448" class="icon" viewBox="0 0 1024 1024" version="1.1" xmlns="http://www.w3.org/2000/svg" p-id="2639" xmlns:xlink="http://www.w3.org/1999/xlink" width="200" height="200"><defs><style type="text/css"></style></defs><path d="M429.470747 368.047867c-47.252308 0-85.69613 38.443822-85.69613 85.69613 0 15.374662 12.452493 27.840466 27.840466 27.840466s27.840466-12.465804 27.840466-27.840466c0-16.55725 13.457949-30.015198 30.015198-30.015199s30.015198 13.457949 30.015199 30.015199c0 16.543939-13.457949 30.015198-30.015199 30.015198-15.387973 0-27.840466 12.465804-27.840466 27.840466V549.757819c0 15.374662 12.452493 27.840466 27.840466 27.840466s27.840466-12.465804 27.840466-27.840466v-14.952821c33.631561-11.595501 57.855664-43.555058 57.855664-81.059977 0-47.254356-38.443822-85.697154-85.69613-85.697154z" fill="#bfbfbf" p-id="2640"></path><path d="M429.457437 626.659798m-28.383125 0a28.383125 28.383125 0 1 0 56.76625 0 28.383125 28.383125 0 1 0-56.76625 0Z" fill="#bfbfbf" p-id="2641"></path><path d="M731.609068 259.704417H119.394244c-30.151375 0-54.702097 24.550722-54.702098 54.715408v395.650791c0 30.164686 24.550722 54.715408 54.702098 54.715408h170.957109l-8.020094 62.069976c-3.045035 11.922121-0.896924 24.087926 6.062425 33.80767 7.395524 10.317692 19.466108 16.475339 32.271841 16.475338 7.395524 0 14.790024-2.05289 21.34289-5.927272a24.529221 24.529221 0 0 0 2.365175-1.576783l142.001632-104.849953h245.233846c30.17902 0 54.728718-24.550722 54.728718-54.715408v-395.649767c0-30.164686-24.550722-54.715408-54.728718-54.715408zM477.212472 709.105092a27.814869 27.814869 0 0 0-16.530628 5.437855l-119.055338 87.911818 7.993473-61.94711a27.938759 27.938759 0 0 0-6.715664-21.940838c-5.274033-6.022493-12.914266-9.461724-20.907739-9.461725l-201.624522 0.965524-0.978834-394.685267 611.263634-0.965524 0.95119 394.685267H477.212472z" fill="#bfbfbf" p-id="2642"></path><path d="M902.837506 62.633113H373.81746c-28.765034 0-52.173101 23.40909-52.1731 52.173101v91.7862h55.680932V118.314045h522.005407V469.48521h-56.060793v55.680931h59.568624c28.765034 0 52.173101-23.40909 52.173101-52.1731V114.806214c-0.001024-28.76401-23.40909-52.173101-52.174125-52.173101z" fill="#bfbfbf" p-id="2643"></path></svg>