<?xml version="1.0" standalone="no"?><!DOCTYPE svg PUBLIC "-//W3C//DTD SVG 1.1//EN" "http://www.w3.org/Graphics/SVG/1.1/DTD/svg11.dtd"><svg t="1616724865583" class="icon" viewBox="0 0 1024 1024" version="1.1" xmlns="http://www.w3.org/2000/svg" p-id="3062" xmlns:xlink="http://www.w3.org/1999/xlink" width="200" height="200"><defs><style type="text/css"></style></defs><path d="M519.768 223.923l15.557 0.03 27.059 0.108 30.14 0.17c1.338 0.01 2.674 0.107 3.998 0.294 92.1 13.01 151.776 54.07 177.378 119.48 21.69 55.415 17.4 124.403-7.816 203.545-20.69 64.94-55.218 135.475-98.483 205.142l-3.164 5.068-3.186 5.048-3.204 5.026c-0.536 0.836-1.072 1.67-1.61 2.504l-3.23 4.989a1277.4 1277.4 0 0 1-4.874 7.43l-3.265 4.916-3.275 4.883-3.285 4.847-3.291 4.81-3.297 4.771c-1.65 2.375-3.3 4.735-4.952 7.077l-3.303 4.663c-0.55 0.773-1.1 1.544-1.651 2.314l-3.301 4.59c-0.55 0.762-1.1 1.52-1.65 2.278l-3.295 4.515c-0.548 0.748-1.097 1.493-1.645 2.237l-3.286 4.434c-0.547 0.734-1.093 1.466-1.64 2.195l-3.271 4.348-3.261 4.288c-0.543 0.71-1.084 1.416-1.626 2.12l-3.24 4.194-3.225 4.128-3.208 4.06-3.188 3.991-3.168 3.919a781.5 781.5 0 0 1-12.425 14.912l-3.037 3.526a598.423 598.423 0 0 1-10.37 11.66 29.9 29.9 0 0 1-5.527 4.735c-84.16 55.9-156.225 52.14-208.417 2.529-17.861-16.978-31.834-38.002-42.162-60.569l-1.075-2.372-1.036-2.33-0.994-2.29-0.952-2.25-0.46-1.11-0.885-2.189c-1.294-3.254-2.434-6.374-3.398-9.364l-0.617-1.974c-3.247-10.754-4.08-19.781-1.506-27.312l2.58-8.08 1.776-5.64 1.737-5.58 1.696-5.524 1.656-5.466 1.617-5.408 1.577-5.35c0.26-0.887 0.517-1.772 0.774-2.654l1.517-5.265 1.479-5.208c0.243-0.863 0.484-1.724 0.724-2.583l1.42-5.122 1.381-5.066 1.342-5.01 1.304-4.953 1.265-4.897 1.227-4.84 1.19-4.785 1.15-4.73 1.113-4.673c0.182-0.774 0.363-1.546 0.542-2.316l1.057-4.59 1.02-4.536 0.981-4.48c0.16-0.742 0.32-1.481 0.477-2.219l0.926-4.398 0.89-4.343 0.852-4.288c0.139-0.71 0.276-1.418 0.412-2.124l0.798-4.206 0.761-4.153c0.124-0.688 0.247-1.373 0.367-2.056l0.707-4.072 0.671-4.017c0.11-0.665 0.217-1.328 0.322-1.989l0.618-3.937 0.581-3.884 0.547-3.83c0.176-1.268 0.346-2.527 0.51-3.778l0.476-3.724c0.077-0.616 0.151-1.23 0.225-1.842l0.423-3.645c0.068-0.603 0.134-1.204 0.199-1.803l0.37-3.566c0.06-0.59 0.117-1.178 0.173-1.763l0.32-3.488c0.1-1.154 0.195-2.299 0.285-3.435l0.25-3.383c0.04-0.56 0.077-1.117 0.113-1.673l0.2-3.305c0.03-0.547 0.06-1.091 0.087-1.633l0.15-3.228c0.022-0.534 0.042-1.066 0.061-1.595l0.1-3.15c0.054-2.084 0.087-4.134 0.097-6.149l0.004-1.52c-0.002-5.511-0.16-10.646-0.462-15.429l-0.18-2.573-0.207-2.505c-0.037-0.411-0.075-0.82-0.114-1.226l-0.249-2.403-0.275-2.335c-2.409-19.183-7.579-31.463-14.316-38.995-2.269-2.535-4.58-4.366-7.66-6.247l-0.44-0.264-5.362-3.13c-4.124-2.49-6.893-4.576-10.14-8.492l-0.59-0.732-0.46-0.483a160.022 160.022 0 0 1-43.672-108.31l-0.008-1.552c0-88.409 71.716-160.078 160.183-160.078l68.85-0.002 3.12-0.095 4.317-0.08 9.962-0.092 13.246-0.04h8.98z m6.83 59.78h-22.873l-10.75 0.064-6.01 0.073-3.001 0.065-2.48 0.088-0.716 0.009h-69.474c-55.435 0-100.373 44.909-100.373 100.307 0 25.936 10.053 50.86 27.922 69.422l0.242 0.25 2.054 1.198 1.603 0.952 1.514 0.936c7.199 4.529 13.594 9.705 19.776 16.616 20.11 22.48 31.01 56.497 31.024 105.285 0.001 4.466-0.089 9.054-0.271 13.767l-0.154 3.559c-0.086 1.79-0.185 3.599-0.297 5.425l-0.241 3.675c-0.13 1.85-0.273 3.717-0.428 5.603l-0.33 3.794-0.365 3.842a506.118 506.118 0 0 1-0.614 5.853l-0.454 3.962-0.49 4.01c-0.084 0.673-0.17 1.348-0.258 2.024l-0.543 4.084c-0.281 2.054-0.576 4.126-0.884 6.217l-0.634 4.206c-0.218 1.41-0.441 2.828-0.67 4.255l-0.708 4.305a700.85 700.85 0 0 1-0.744 4.354l-0.78 4.404a750.34 750.34 0 0 1-0.818 4.454l-0.855 4.504-0.892 4.555a822.7 822.7 0 0 1-0.46 2.296l-0.948 4.63-0.985 4.682-1.023 4.732a938.88 938.88 0 0 1-1.605 7.194l-1.117 4.86c-0.19 0.815-0.38 1.632-0.573 2.45l-1.175 4.938-1.212 4.99-0.621 2.515-1.27 5.067-1.309 5.12-1.347 5.173-1.386 5.226c-0.234 0.875-0.47 1.753-0.708 2.632l-1.444 5.305-1.483 5.358-1.523 5.411-1.562 5.465-1.6 5.518-1.641 5.572c-0.554 1.866-1.114 3.742-1.68 5.626l-1.72 5.68-1.76 5.735-1.8 5.79c-0.607 1.938-1.22 3.886-1.84 5.843l-0.414 1.298 0.316 0.959c1.315 3.942 3.06 8.434 5.15 13.106l0.578 1.278c7.377 16.122 17.22 30.93 28.99 42.12 13.894 13.205 29.606 20.641 47.99 21.6 22.527 1.176 49.567-7.217 81.567-27.647l1.488-0.958 1.592-1.774a553.191 553.191 0 0 0 2.792-3.154l2.829-3.244a630.763 630.763 0 0 0 2.863-3.33l2.896-3.416c0.97-1.153 1.946-2.319 2.926-3.499l2.956-3.578 2.982-3.657 3.008-3.732c0.503-0.628 1.007-1.26 1.513-1.894l3.042-3.842a904.52 904.52 0 0 0 1.529-1.947l3.072-3.946 3.09-4.013c0.516-0.674 1.033-1.35 1.551-2.03l3.113-4.109c0.52-0.69 1.041-1.382 1.562-2.077l3.133-4.2 3.143-4.257 3.151-4.312c0.526-0.723 1.052-1.449 1.578-2.176l3.161-4.391 3.165-4.441c0.528-0.744 1.055-1.49 1.583-2.239l3.168-4.51c1.055-1.512 2.11-3.03 3.166-4.556l3.164-4.597c0.527-0.77 1.054-1.541 1.58-2.314l3.157-4.656 3.15-4.691c1.048-1.57 2.095-3.145 3.14-4.726l3.13-4.757c0.52-0.796 1.041-1.592 1.56-2.39l3.11-4.8c0.518-0.803 1.034-1.606 1.55-2.41l3.086-4.84a1191.8 1191.8 0 0 0 4.594-7.299l1.498-2.406c40.852-65.781 73.282-132.03 92.311-191.757l1.265-4.025c0.622-2.005 1.227-4 1.817-5.984l1.157-3.955c17.595-61.088 19.575-112.102 4.868-149.676-16.786-42.884-56.394-70.763-125.765-81.437l-2.353-0.354-22.867-0.129-40.617-0.154z m241.545-91.966c24.774 0 44.857 20.07 44.857 44.828 0 24.758-20.083 44.828-44.857 44.828s-44.858-20.07-44.858-44.828c0-24.758 20.084-44.828 44.858-44.828zM288.513 63c44.467 0 80.514 36.023 80.514 80.46 0 44.438-36.047 80.46-80.514 80.46-44.466 0-80.513-36.022-80.513-80.46C208 99.023 244.047 63 288.513 63z m361.16 36.782c30.491 0 55.21 24.702 55.21 55.173s-24.719 55.173-55.21 55.173-55.21-24.702-55.21-55.173 24.719-55.173 55.21-55.173zM481.745 63c35.573 0 64.41 28.819 64.41 64.368 0 35.55-28.837 64.369-64.41 64.369-35.573 0-64.41-28.819-64.41-64.369S446.172 63 481.745 63z" fill="#bfbfbf" p-id="3063"></path></svg>