<?xml version="1.0" standalone="no"?><!DOCTYPE svg PUBLIC "-//W3C//DTD SVG 1.1//EN" "http://www.w3.org/Graphics/SVG/1.1/DTD/svg11.dtd"><svg t="1616725016697" class="icon" viewBox="0 0 1024 1024" version="1.1" xmlns="http://www.w3.org/2000/svg" p-id="5743" xmlns:xlink="http://www.w3.org/1999/xlink" width="200" height="200"><defs><style type="text/css"></style></defs><path d="M992 416L563.2 44.8C531.2 19.2 492.8 19.2 460.8 44.8L32 416c-25.6 19.2-32 51.2-19.2 83.2s38.4 51.2 76.8 51.2H128v364.8c0 44.8 38.4 83.2 83.2 83.2h614.4c44.8 0 83.2-38.4 83.2-83.2v-57.6c0-19.2-19.2-38.4-38.4-38.4s-38.4 19.2-38.4 38.4l-6.4 57.6h-134.4v-249.6c0-44.8-32-76.8-76.8-76.8h-192c-44.8 0-76.8 32-76.8 76.8v249.6H211.2V518.4c0-19.2-19.2-38.4-38.4-38.4H89.6L512 108.8l428.8 371.2h-83.2c-19.2 0-38.4 19.2-38.4 38.4v160c0 19.2 19.2 38.4 38.4 38.4s38.4-19.2 38.4-38.4v-128h44.8c32 0 64-19.2 76.8-51.2 6.4-32 0-64-25.6-83.2z m-576 256h192v249.6h-192v-249.6z" fill="#bfbfbf" p-id="5744"></path></svg>