<?xml version="1.0" standalone="no"?><!DOCTYPE svg PUBLIC "-//W3C//DTD SVG 1.1//EN" "http://www.w3.org/Graphics/SVG/1.1/DTD/svg11.dtd"><svg t="1616496875610" class="icon" viewBox="0 0 1024 1024" version="1.1" xmlns="http://www.w3.org/2000/svg" p-id="10021" xmlns:xlink="http://www.w3.org/1999/xlink" width="200" height="200"><defs><style type="text/css"></style></defs><path d="M411.3408 148.3776A134.4512 134.4512 0 0 1 512 102.4c39.1168 0 74.5472 17.2544 100.1984 45.056l0.256 0.3072 273.408 301.2096 0.5632 0.6656c40.448 46.08 39.936 93.2352 28.416 122.0608-3.072 7.68-10.1888 23.0912-25.2928 36.864a97.1264 97.1264 0 0 1-55.808 24.576v135.0656c0 68.6592-46.7968 153.3952-135.4752 153.3952h-164.352v-240.1792h-43.4688V921.6H325.7344c-88.6784 0-135.5264-84.736-135.5264-153.3952v-135.1168a97.1264 97.1264 0 0 1-55.808-24.576 99.4304 99.4304 0 0 1-25.1392-36.5568c-11.776-28.928-11.9296-76.5952 28.5184-122.1632l0.3584-0.4096 273.2032-301.0048z m398.336 369.0496l-272.896-300.6464C528.7424 208.0768 519.8848 204.8 512 204.8c-8.192 0-16.896 3.4816-24.1664 11.6736l-0.512 0.512-273.152 300.9536a41.984 41.984 0 0 0-8.5504 13.4144h87.04v236.8512c0 15.5648 5.2224 29.7984 12.6464 39.2192 7.0144 8.96 14.1824 11.776 20.48 11.776h62.2592v-148.224V665.6l-0.1536-12.5952a94.72 94.72 0 0 1 3.8912-27.7504c4.2496-13.3632 13.312-27.648 29.696-36.864 14.1312-8.0384 28.7232-9.3184 38.912-9.3184h103.6288c10.0864 0 24.6784 1.28 38.8608 9.2672 16.384 9.2672 25.4464 23.552 29.696 36.9152 3.584 11.2128 3.84 22.016 3.8912 27.7504l-0.1024 12.5952-0.0512 5.4272V819.2h61.952c6.2464 0 13.4144-2.816 20.48-11.776 7.3728-9.4208 12.6464-23.6544 12.6464-39.2192v-236.8512h87.04a43.008 43.008 0 0 0-8.704-13.9264z" fill="#94E1E8" p-id="10022"></path><path d="M409.6 409.6a51.2 51.2 0 1 0 0 102.4 51.2 51.2 0 0 0 0-102.4z m204.8 0a51.2 51.2 0 1 0 0 102.4 51.2 51.2 0 0 0 0-102.4z" fill="#73DEBF" p-id="10023"></path></svg>