<?xml version="1.0" standalone="no"?><!DOCTYPE svg PUBLIC "-//W3C//DTD SVG 1.1//EN" "http://www.w3.org/Graphics/SVG/1.1/DTD/svg11.dtd"><svg t="1616496865171" class="icon" viewBox="0 0 1024 1024" version="1.1" xmlns="http://www.w3.org/2000/svg" p-id="9759" xmlns:xlink="http://www.w3.org/1999/xlink" width="200" height="200"><defs><style type="text/css"></style></defs><path d="M314.6752 244.48A227.7888 227.7888 0 0 1 739.7376 358.4a227.84 227.84 0 0 1-227.7888 227.84c-146.2784 0-258.56 121.1392-258.56 258.56h-97.28c0-136.192 79.872-260.9664 200.192-320a227.8912 227.8912 0 0 1-41.6256-280.32zM512 227.84A130.56 130.56 0 1 0 512 488.96a130.56 130.56 0 0 0 0-261.12z" fill="#94E1E8" p-id="9760"></path><path d="M537.4976 640c-12.4928 0-26.5216 3.1232-37.3248 13.8752-10.752 10.752-13.8752 24.832-13.8752 37.3248s3.1232 26.5216 13.8752 37.3248c10.752 10.752 24.832 13.8752 37.3248 13.8752h307.0976c12.4928 0 26.5728-3.1232 37.3248-13.8752 10.752-10.752 13.8752-24.832 13.8752-37.3248s-3.1232-26.5216-13.8752-37.3248c-10.752-10.752-24.832-13.8752-37.3248-13.8752h-307.0976z m0 153.6c-12.4928 0-26.5216 3.1232-37.3248 13.8752-10.752 10.752-13.8752 24.832-13.8752 37.3248s3.1232 26.5216 13.8752 37.3248c10.752 10.752 24.832 13.8752 37.3248 13.8752h307.0976c12.4928 0 26.5728-3.1232 37.3248-13.8752 10.752-10.752 13.8752-24.832 13.8752-37.3248s-3.1232-26.5216-13.8752-37.3248c-10.752-10.752-24.832-13.8752-37.3248-13.8752h-307.0976z" fill="#73DEBF" p-id="9761"></path></svg>